<svg xmlns="http://www.w3.org/2000/svg" width="120" height="24" viewBox="0 0 120 24"><defs><style>.a{fill:#fff;}.b{fill:#f0a849;}</style></defs><path class="a" d="M673.3,966.934H661.014l-1.685,3.741h-6.517l10.9-24h6.853l10.935,24h-6.554Zm-2.135-4.73-3.969-8.964-4.044,8.964Z" transform="translate(-628.416 -946.675)"/><path class="a" d="M818.51,970.675h-6.179V958.428l-6.1,12.247h-6.854l-6.1-12.247v12.247h-6.142v-24h6.816l8.875,17.611,8.839-17.611h6.853Z" transform="translate(-708.974 -946.675)"/><g transform="translate(48.328 0)"><path class="a" d="M748.563,946.675l-5.3,7.632-4.66,7.3v9.069h6.18V961.6l10.935-14.93Z" transform="translate(-727.741 -946.675)"/><path class="b" d="M724.155,953.355l-4.831-6.679h-7.078l8.669,11.634Z" transform="translate(-712.246 -946.675)"/></g><g transform="translate(113.858 0)"><path class="b" d="M879.916,958.922V946.675h-6.142v6.6Z" transform="translate(-873.774 -946.675)"/><path class="a" d="M873.774,976.172v12.246h6.142v-6.6Z" transform="translate(-873.774 -964.418)"/></g><g transform="translate(0)"><path class="a" d="M613.585,955.675a8.53,8.53,0,0,1-4.532,7.764l5.243,7.235h-7.64l-3.819-5.965h-4.494v5.965H592.2v-24h12.32A8.779,8.779,0,0,1,613.585,955.675Zm-15.242-3.635v7.306h5.28a3.655,3.655,0,1,0,.037-7.306Z" transform="translate(-592.201 -946.675)"/></g></svg>